<svg width="24" height="24" viewBox="0 0 24 24" fill="none" xmlns="http://www.w3.org/2000/svg">
<path d="M12.6383 9.33125C12.8877 9.33125 13.0638 9.38628 13.1665 9.49633C13.2766 9.59905 13.3316 9.77513 13.3316 10.0246V17.2439H16.424C16.6001 17.2439 16.7358 17.277 16.8312 17.343C16.9266 17.4017 16.9963 17.5117 17.0403 17.6731C17.0917 17.8346 17.1173 18.0693 17.1173 18.3775C17.1173 18.6856 17.0917 18.9204 17.0403 19.0818C16.9963 19.2432 16.9266 19.3533 16.8312 19.412C16.7358 19.4707 16.6001 19.5 16.424 19.5H7.57589C7.39981 19.5 7.26408 19.4707 7.1687 19.412C7.07332 19.3533 6.99996 19.2432 6.9486 19.0818C6.90458 18.9204 6.88257 18.6856 6.88257 18.3775C6.88257 18.0693 6.90458 17.8346 6.9486 17.6731C6.99996 17.5117 7.07332 17.4017 7.1687 17.343C7.26408 17.277 7.39981 17.2439 7.57589 17.2439H10.5803V11.5873H8.2362C8.06012 11.5873 7.92439 11.558 7.82901 11.4993C7.73363 11.4406 7.66026 11.3305 7.60891 11.1691C7.56489 11.0077 7.54288 10.7729 7.54288 10.4648C7.54288 10.1566 7.56489 9.92186 7.60891 9.76045C7.66026 9.59905 7.73363 9.48899 7.82901 9.4303C7.92439 9.36427 8.06012 9.33125 8.2362 9.33125H12.6383ZM11.9229 4.5C12.4438 4.5 12.807 4.55503 13.0124 4.66508C13.2252 4.76779 13.3316 4.94387 13.3316 5.19332V6.99817C13.3316 7.24762 13.2325 7.42737 13.0344 7.53742C12.8437 7.64013 12.4915 7.69149 11.9779 7.69149C11.4644 7.69149 11.1012 7.64013 10.8884 7.53742C10.683 7.42737 10.5803 7.24762 10.5803 6.99817V5.19332C10.5803 4.93654 10.6757 4.75679 10.8664 4.65407C11.0572 4.55136 11.4093 4.5 11.9229 4.5Z" fill="white"/>
</svg>
